<svg xmlns="http://www.w3.org/2000/svg" style="border: 1px solid black" viewBox="0 0 313.27143200184685 160.89786705870327"><g transform="matrix(1,0,0,-1, 10,150.89786705870327)"><g><path id="boundaryCurve" fill="none" d="M 13.000000000000014 10 L 47.648437500000014 10 A 3,3 0 0 1 50.648437500000014 13 L 50.648437500000014 23.40000000000001 A 3,3 0 0 1 47.648437500000014 26.40000000000001 L 13.000000000000014 26.400000000000013 A 3,3 0 0 1 10.000000000000014 23.40000000000001 L 10 13 A 3,3 0 0 1 13.000000000000014 10" stroke="Black" stroke-width="1"/><text id="nodeLabel" text-anchor="middle" x="30.324218750000007" fill="Black" font-family="Times-Roman" font-size="12px" transform="scale(1,-1)"><tspan id="0" text-anchor="middle" x="30.324218750000007" alignment-baseline="middle" y="-18.200000000000006">kspacey</tspan></text></g><g><path id="boundaryCurve" fill="none" d="M 73.85582125883414 39.6165236394723 L 115.85777438383411 39.6165236394723 A 3,3 0 0 1 118.85777438383411 42.616523639472305 L 118.85777438383411 53.016523639472304 A 3,3 0 0 1 115.85777438383411 56.016523639472304 L 73.85582125883414 56.016523639472304 A 3,3 0 0 1 70.85582125883414 53.016523639472304 L 70.85582125883414 42.616523639472305 A 3,3 0 0 1 73.85582125883414 39.616523639472305" stroke="Black" stroke-width="1"/><text id="nodeLabel" text-anchor="middle" x="94.85679782133413" fill="Black" font-family="Times-Roman" font-size="12px" transform="scale(1,-1)"><tspan id="0" text-anchor="middle" x="94.85679782133413" alignment-baseline="middle" y="-47.8165236394723">swilliams</tspan></text></g><g><path id="boundaryCurve" fill="none" d="M 142.70963162301769 71.11099527936094 L 173.36197537301769 71.11099527936094 A 3,3 0 0 1 176.36197537301769 74.11099527936094 L 176.36197537301769 84.51099527936094 A 3,3 0 0 1 173.36197537301769 87.51099527936094 L 142.70963162301769 87.51099527936094 A 3,3 0 0 1 139.70963162301769 84.51099527936094 L 139.70963162301769 74.11099527936094 A 3,3 0 0 1 142.70963162301769 71.11099527936094" stroke="Black" stroke-width="1"/><text id="nodeLabel" text-anchor="middle" x="158.03580349801769" fill="Black" font-family="Times-Roman" font-size="12px" transform="scale(1,-1)"><tspan id="0" text-anchor="middle" x="158.03580349801769" alignment-baseline="middle" y="-79.31099527936094">kbacon</tspan></text></g><g><path id="boundaryCurve" fill="none" d="M 148.06819225929155 108.09786705870332 L 166.07014538429155 108.09786705870332 A 3,3 0 0 1 169.07014538429155 111.09786705870332 L 169.07014538429155 121.49786705870328 A 3,3 0 0 1 166.07014538429155 124.49786705870328 L 148.06819225929155 124.49786705870328 A 3,3 0 0 1 145.06819225929155 121.49786705870328 L 145.06819225929158 111.09786705870332 A 3,3 0 0 1 148.06819225929155 108.09786705870332" stroke="Black" stroke-width="1"/><text id="nodeLabel" text-anchor="middle" x="157.06916882179155" fill="Black" font-family="Times-Roman" font-size="12px" transform="scale(1,-1)"><tspan id="0" text-anchor="middle" x="157.06916882179155" alignment-baseline="middle" y="-116.2978670587033">bpitt</tspan></text></g><g><path id="boundaryCurve" fill="none" d="M 258.27924450184685 42.69070741936072 L 280.27143200184685 42.69070741936072 A 3,3 0 0 1 283.27143200184685 45.69070741936072 L 283.27143200184685 56.090707419360726 A 3,3 0 0 1 280.27143200184685 59.090707419360726 L 258.27924450184685 59.090707419360726 A 3,3 0 0 1 255.27924450184685 56.090707419360726 L 255.27924450184685 45.69070741936072 A 3,3 0 0 1 258.27924450184685 42.69070741936072" stroke="Black" stroke-width="1"/><text id="nodeLabel" text-anchor="middle" x="269.27533825184685" fill="Black" font-family="Times-Roman" font-size="12px" transform="scale(1,-1)"><tspan id="0" text-anchor="middle" x="269.27533825184685" alignment-baseline="middle" y="-50.89070741936072">hford</tspan></text></g><g><path id="boundaryCurve" fill="none" d="M 200.19711363507628 58.41700488464295 L 231.53500426007628 58.41700488464295 A 3,3 0 0 1 234.53500426007628 61.41700488464296 L 234.53500426007628 71.81700488464296 A 3,3 0 0 1 231.53500426007628 74.81700488464296 L 200.19711363507628 74.81700488464294 A 3,3 0 0 1 197.19711363507628 71.81700488464296 L 197.19711363507628 61.41700488464296 A 3,3 0 0 1 200.19711363507628 58.41700488464296" stroke="Black" stroke-width="1"/><text id="nodeLabel" text-anchor="middle" x="215.86605894757628" fill="Black" font-family="Times-Roman" font-size="12px" transform="scale(1,-1)"><tspan id="0" text-anchor="middle" x="215.86605894757628" alignment-baseline="middle" y="-66.61700488464294">lwilson</tspan></text></g><g><path id="curve" fill="none" stroke="Black" stroke-opacity="1" stroke-width="1" d="M 48.11274789684503 26.363851523842193 L 76.9895033735929 39.6165236394723"/></g><g><path id="curve" fill="none" stroke="Black" stroke-opacity="1" stroke-width="1" d="M 111.30628306663216 56.016523639472304 L 141.84293345171753 71.23891688908937"/></g><g><path id="curve" fill="none" stroke="Black" stroke-opacity="1" stroke-width="1" d="M 157.28347200461658 108.09786705870332 L 157.82150031519265 87.51099527936094"/></g><g><path id="curve" fill="none" stroke="Black" stroke-opacity="1" stroke-width="1" d="M 255.27924450184685 55.01184023619837 L 234.5206784795482 61.12417480561964"/></g><g><path id="curve" fill="none" stroke="Black" stroke-opacity="1" stroke-width="1" d="M 197.19711363507628 70.71491886814756 L 176.36197537301769 75.28832154318644"/></g></g></svg>